<svg width="300" height="300" viewBox="0 0 300 300" fill="none" xmlns="http://www.w3.org/2000/svg">
<path d="M81 159L120 212H180L219 159M89.5 170.655L68 198L81 236L120 261H180.109L219 236L232 198L210.316 170.5" stroke="black"/>
<path d="M90 51L150 40L210 51L255 81L260 120L219 159L150 170L81 159L40 120L45 81L90 51Z" stroke="black"/>
<path d="M243.288 100.996L250.926 109.639L240.814 117.492L240.561 117.689L240.634 118.001L242.866 127.59L228.576 133.248L228.366 133.331L228.289 133.543L224.806 143.159L207.837 145.934L207.684 145.959L207.572 146.066L198.614 154.625L180.867 154.153L180.746 154.15L180.637 154.202L167.146 160.697L150.609 157.009L150.5 156.985L150.391 157.009L133.854 160.697L120.363 154.202L120.254 154.15L120.133 154.153L102.386 154.625L93.4279 146.066L93.3159 145.959L93.1632 145.934L76.1942 143.159L72.7105 133.543L72.6338 133.331L72.4245 133.248L58.1337 127.59L60.366 118.001L60.4386 117.689L60.1857 117.492L50.0741 109.639L57.7124 100.996L57.9439 100.734L57.7774 100.427L52.7813 91.2044L65.1347 84.3494L65.3739 84.2167L65.3911 83.9436L66.0041 74.2131L81.8539 69.9274L82.0322 69.8792L82.1364 69.7266L88.4333 60.5017L106.041 59.3292L106.175 59.3202L106.286 59.2454L117.667 51.6072L135.053 53.7154L135.166 53.7291L135.274 53.6925L150.5 48.528L165.726 53.6925L165.834 53.7291L165.947 53.7154L183.333 51.6072L194.714 59.2454L194.825 59.3202L194.959 59.3292L212.567 60.5017L218.864 69.7266L218.968 69.8792L219.146 69.9274L234.996 74.2131L235.609 83.9436L235.626 84.2167L235.865 84.3494L248.219 91.2044L243.223 100.427L243.056 100.734L243.288 100.996Z" stroke="black"/>
</svg>
