<svg width="300" height="300" viewBox="0 0 300 300" fill="none" xmlns="http://www.w3.org/2000/svg">
<path d="M81 159L135.5 209L150.5 211.5L166 209L219 159" stroke="black"/>
<path d="M123 55L150 43L172.5 55L205.091 53.0692L220 73L246.409 80.5308L240 99L251 116.231L220 131.5L213.355 151.931L180 149L150 162L120 149L86.6455 151.931L80 131L49 116.231L60 99L53.5909 80.5308L80 73.5L94.9091 53.0692L123 55Z" stroke="black"/>
<path d="M119.891 48.6134L150.5 35L176.007 48.6134L212.955 46.4231L229.856 69.0336L259.795 77.5769L252.53 98.5294L265 118.077L229.856 135.399L219 159L184.51 155.252L150.5 170L116.49 155.252L81 159L71.1436 134.832L36 118.077L48.4703 98.5294L41.2045 77.5769L71.1436 69.6008L88.0455 46.4231L119.891 48.6134Z" stroke="black"/>
<path d="M90 167.5L68 197L81 235L120 260H180.109L219 235L232 197L209 168.5" stroke="black"/>
</svg>
