<svg width="300" height="300" viewBox="0 0 300 300" fill="none" xmlns="http://www.w3.org/2000/svg">
<path d="M81 159L120 212H180L219 159M89.5 170.655L68 198L81 236L120 261H180.109L219 236L232 198L210.316 170.5" stroke="black"/>
<path d="M90 51L150 40L210 51L255 81L260 120L219 159L150 170L81 159L40 120L45 81L90 51Z" stroke="black"/>
<path d="M94.9091 56.0692L150 46L205.091 56.0692L246.409 83.5308L251 119.231L213.355 154.931L150 165L86.6455 154.931L49 119.231L53.5909 83.5308L94.9091 56.0692Z" stroke="black"/>
<path d="M145.5 99.825L144 100.1L139.5 103.1L139 107L143.1 110.9L150 112L156.9 110.9L161 107L160.5 103.1L156 100.1L154.5 99.825" stroke="black"/>
<path d="M157.071 80.0711L150 87.1421L142.929 80.0711" stroke="black"/>
<path d="M150 83V63" stroke="black"/>
</svg>
