<svg width="300" height="300" viewBox="0 0 300 300" fill="none" xmlns="http://www.w3.org/2000/svg">
<path d="M77.5 51L134 40L201.5 51L242.5 81.5L247.5 121L211.5 158.5L139 170L70 158.5L29.5 121L37 81.5L77.5 51Z" stroke="white"/>
<path d="M83.0367 55.1538L134.872 45L196.798 55.1538L234.413 83.3077L239 119.769L205.972 154.385L139.459 165L76.156 154.385L39 119.769L45.8807 83.3077L83.0367 55.1538Z" stroke="white"/>
<path d="M70 158.5L114.5 211H169L212.5 158.5M78.2029 167.691L54 199L62 240.5L114.5 271.5L177.5 268.5L219 240.5L231.5 199L206.286 166" stroke="white"/>
</svg>
